<svg xmlns="http://www.w3.org/2000/svg" width="1200" height="420" viewBox="0 0 1200 420">
  <defs>
    <linearGradient id="g0" x1="0" y1="0" x2="1" y2="1">
      <stop offset="0" stop-color="#0b1020"/>
      <stop offset="1" stop-color="#121c3a"/>
    </linearGradient>
    <radialGradient id="glow" cx="30%" cy="25%" r="70%">
      <stop offset="0" stop-color="#7c5cff" stop-opacity="0.22"/>
      <stop offset="1" stop-color="#7c5cff" stop-opacity="0"/>
    </radialGradient>
    <radialGradient id="glow2" cx="78%" cy="30%" r="65%">
      <stop offset="0" stop-color="#27d7ff" stop-opacity="0.18"/>
      <stop offset="1" stop-color="#27d7ff" stop-opacity="0"/>
    </radialGradient>
    <linearGradient id="desk" x1="0" y1="0" x2="0" y2="1">
      <stop offset="0" stop-color="#0f1730"/>
      <stop offset="1" stop-color="#0a1022"/>
    </linearGradient>
  </defs>

  <rect width="1200" height="420" fill="url(#g0)"/>
  <rect width="1200" height="420" fill="url(#glow)"/>
  <rect width="1200" height="420" fill="url(#glow2)"/>

  <!-- window -->
  <g opacity="0.9">
    <rect x="76" y="54" width="360" height="170" rx="16" fill="#0f1730" stroke="rgba(255,255,255,0.10)"/>
    <rect x="92" y="72" width="328" height="136" rx="12" fill="#0b1020" stroke="rgba(255,255,255,0.08)"/>
    <path d="M92 140 H420" stroke="rgba(255,255,255,0.08)"/>
    <path d="M256 72 V208" stroke="rgba(255,255,255,0.08)"/>
    <circle cx="118" cy="94" r="6" fill="#7c5cff" opacity="0.7"/>
    <circle cx="140" cy="94" r="6" fill="#27d7ff" opacity="0.7"/>
  </g>

  <!-- shelves -->
  <g opacity="0.9">
    <rect x="820" y="52" width="300" height="190" rx="16" fill="#0f1730" stroke="rgba(255,255,255,0.10)"/>
    <rect x="844" y="78" width="252" height="18" rx="9" fill="rgba(255,255,255,0.06)"/>
    <rect x="844" y="118" width="252" height="18" rx="9" fill="rgba(255,255,255,0.06)"/>
    <rect x="844" y="158" width="252" height="18" rx="9" fill="rgba(255,255,255,0.06)"/>
    <g fill="rgba(255,255,255,0.14)">
      <rect x="860" y="64" width="22" height="34" rx="6"/>
      <rect x="888" y="60" width="18" height="38" rx="6"/>
      <rect x="912" y="66" width="26" height="32" rx="6"/>
      <rect x="946" y="62" width="18" height="36" rx="6"/>
      <rect x="968" y="68" width="30" height="30" rx="6"/>
      <rect x="1004" y="61" width="18" height="37" rx="6"/>
    </g>
  </g>

  <!-- desk -->
  <g>
    <rect x="0" y="272" width="1200" height="150" fill="url(#desk)"/>
    <rect x="0" y="272" width="1200" height="1" fill="rgba(255,255,255,0.10)"/>
    <rect x="260" y="244" width="680" height="72" rx="18" fill="rgba(255,255,255,0.04)" stroke="rgba(255,255,255,0.10)"/>
  </g>

  <!-- monitors -->
  <g>
    <rect x="380" y="170" width="180" height="110" rx="14" fill="#0b1020" stroke="rgba(255,255,255,0.10)"/>
    <rect x="406" y="196" width="128" height="58" rx="10" fill="rgba(124,92,255,0.16)"/>
    <rect x="640" y="160" width="210" height="130" rx="14" fill="#0b1020" stroke="rgba(255,255,255,0.10)"/>
    <rect x="668" y="190" width="154" height="68" rx="10" fill="rgba(39,215,255,0.14)"/>
    <rect x="458" y="284" width="22" height="18" rx="6" fill="rgba(255,255,255,0.08)"/>
    <rect x="730" y="296" width="30" height="16" rx="6" fill="rgba(255,255,255,0.08)"/>
  </g>

  <!-- subtle foreground noise dots -->
  <g opacity="0.25" fill="rgba(255,255,255,0.18)">
    <circle cx="520" cy="92" r="1.2"/>
    <circle cx="548" cy="108" r="1.1"/>
    <circle cx="598" cy="86" r="1.0"/>
    <circle cx="624" cy="116" r="1.2"/>
    <circle cx="702" cy="104" r="1.0"/>
    <circle cx="736" cy="88" r="1.1"/>
  </g>
</svg>
