<svg xmlns="http://www.w3.org/2000/svg" width="260" height="260" viewBox="0 0 260 260">
  <defs>
    <linearGradient id="hood" x1="0" y1="0" x2="1" y2="1">
      <stop offset="0" stop-color="#7c5cff" stop-opacity="0.55"/>
      <stop offset="1" stop-color="#27d7ff" stop-opacity="0.30"/>
    </linearGradient>
    <linearGradient id="coat" x1="0" y1="0" x2="0" y2="1">
      <stop offset="0" stop-color="#151f40"/>
      <stop offset="1" stop-color="#0f1730"/>
    </linearGradient>
  </defs>

  <!-- shadow -->
  <ellipse cx="130" cy="230" rx="70" ry="18" fill="rgba(0,0,0,0.35)"/>

  <!-- coat -->
  <path d="M78 210c6-44 18-88 52-88s46 44 52 88c-14 10-31 16-52 16s-38-6-52-16z" fill="url(#coat)" stroke="rgba(255,255,255,0.10)"/>

  <!-- hood -->
  <path d="M70 132c0-38 28-74 60-74s60 36 60 74c0 26-14 46-60 46s-60-20-60-46z" fill="rgba(255,255,255,0.04)" stroke="rgba(255,255,255,0.12)"/>
  <path d="M86 132c0-28 20-54 44-54s44 26 44 54c0 18-10 32-44 32s-44-14-44-32z" fill="url(#hood)" opacity="0.9"/>

  <!-- face -->
  <circle cx="130" cy="128" r="26" fill="#0b1020" stroke="rgba(255,255,255,0.12)"/>
  <circle cx="121" cy="124" r="3.2" fill="rgba(232,236,255,0.85)"/>
  <circle cx="142" cy="124" r="3.2" fill="rgba(232,236,255,0.85)"/>
  <path d="M122 140c6 6 14 6 20 0" stroke="rgba(232,236,255,0.45)" stroke-width="3" fill="none" stroke-linecap="round"/>

  <!-- laptop -->
  <g>
    <rect x="78" y="176" width="104" height="64" rx="12" fill="#0b1020" stroke="rgba(255,255,255,0.12)"/>
    <rect x="90" y="188" width="80" height="40" rx="10" fill="rgba(124,92,255,0.16)"/>
    <rect x="66" y="240" width="128" height="14" rx="7" fill="rgba(255,255,255,0.10)"/>
  </g>

  <!-- badge -->
  <g transform="translate(166 170)">
    <circle cx="30" cy="30" r="28" fill="rgba(39,215,255,0.14)" stroke="rgba(39,215,255,0.35)"/>
    <path d="M30 12l7 14 15 2-11 10 3 15-14-8-14 8 3-15-11-10 15-2z" fill="rgba(232,236,255,0.55)"/>
  </g>
</svg>
